<svg xmlns="http://www.w3.org/2000/svg" viewBox="0 0 140 32" fill="none" role="img" aria-label="Highsail">
  <path fill="#111010" d="m23.526.69-.26 3.279c-.537 3.926-.84 4.885-2.757 7.592-2.995 4.228-12.73 8.059-17.598 9.824 6.178-1.016 16.826-5.476 20.616-10.47v8.928c-4.959 3.23-10.67 4.349-16.535 4.349H.016c-.004.034-.034 0 0 0v-7.589c-.002-.028-.025-.054 0-.066 2.143-.98 4.22-2.396 5.758-4.164C8.494 9.29 8.637 5.2 8.42 1.16L8.395.68h6.575c-.032.407-.158 1.293-.215 1.697-.686 4.89-2.276 10.534-11.735 15.896C13.24 13.479 16.985 7.045 17.351.681"/>
  <text x="30" y="24" font-family="Inter, system-ui, -apple-system, sans-serif" font-size="22" font-weight="600" fill="#111010" letter-spacing="-0.02em">highsail</text>
</svg>
